<?xml version="1.0" encoding="UTF-8" standalone="no"?>
<svg
   xmlns:dc="http://purl.org/dc/elements/1.1/"
   xmlns:cc="http://creativecommons.org/ns#"
   xmlns:rdf="http://www.w3.org/1999/02/22-rdf-syntax-ns#"
   xmlns:svg="http://www.w3.org/2000/svg"
   xmlns="http://www.w3.org/2000/svg"
   xmlns:sodipodi="http://sodipodi.sourceforge.net/DTD/sodipodi-0.dtd"
   xmlns:inkscape="http://www.inkscape.org/namespaces/inkscape"
   version="1.1"
   x="0px"
   y="0px"
   viewBox="0 0 32.518913 45.685375"
   enable-background="new 0 0 48 48"
   xml:space="preserve"
   id="svg16"
   sodipodi:docname="editor_poubelle.svg"
   width="32.518913"
   height="45.685375"
   inkscape:version="0.92.2 5c3e80d, 2017-08-06"><metadata
     id="metadata22"><rdf:RDF><cc:Work
         rdf:about=""><dc:format>image/svg+xml</dc:format><dc:type
           rdf:resource="http://purl.org/dc/dcmitype/StillImage" /><dc:title></dc:title></cc:Work></rdf:RDF></metadata><defs
     id="defs20" /><sodipodi:namedview
     pagecolor="#ffffff"
     bordercolor="#666666"
     borderopacity="1"
     objecttolerance="10"
     gridtolerance="10"
     guidetolerance="10"
     inkscape:pageopacity="0"
     inkscape:pageshadow="2"
     inkscape:window-width="1276"
     inkscape:window-height="1415"
     id="namedview18"
     showgrid="false"
     fit-margin-top="0"
     fit-margin-left="0"
     fit-margin-right="0"
     fit-margin-bottom="0"
     inkscape:zoom="3.9333333"
     inkscape:cx="20.003235"
     inkscape:cy="16.64"
     inkscape:window-x="1280"
     inkscape:window-y="21"
     inkscape:window-maximized="0"
     inkscape:current-layer="svg16" /><path
     d="M 30.939705,15.154374 H 6.9877046 c -0.871,0 -1.58,0.708 -1.578,1.625 l 1.578,27.327 c 0,0.871 0.708,1.579 1.579,1.579 H 29.359705 c 0.871,0 1.579,-0.708 1.579,-1.533 l 1.579,-27.418 c 10e-4,-0.872 -0.707,-1.58 -1.578,-1.58 z m -1.579,28.952 -20.7950004,-0.045 -1.578,-27.328 23.9520004,-0.046 z"
     id="path2"
     inkscape:connector-curvature="0" /><path
     d="m 0.0877046,10.481374 c -0.096,0.186 -0.114,0.403 -0.05,0.602 l 1.319,4.137 c 0.107,0.336 0.418,0.55 0.752,0.55 0.08,0 0.161,-0.012 0.24,-0.038 L 31.968705,6.2843735 c 0.2,-0.064 0.366,-0.204 0.462,-0.39 0.097,-0.186 0.114,-0.403 0.051,-0.602 l -1.32,-4.137 c -0.134,-0.41599996 -0.576,-0.64599996 -0.993,-0.51299996 l -8.792,2.80499996 -0.749,-2.351 c -0.259,-0.81199996 -1.165,-1.28599996 -1.985,-1.02399996 L 9.6157046,2.9513735 c -0.402,0.128 -0.729,0.405 -0.923,0.78 -0.194,0.375 -0.229,0.803 -0.101,1.204 l 0.75,2.351 -8.792,2.8040005 c -0.2,0.064 -0.366,0.205 -0.462,0.391 z m 19.0360004,-8.9050005 0.75,2.351 -4.514,1.439 -4.514,1.44 -0.75,-2.351 z m 10.774,0.811 0.84,2.633 -28.1170004,8.9680005 -0.839,-2.633 z"
     id="path4"
     inkscape:connector-curvature="0" /><path
     d="m 12.547705,41.014374 c 0.436,0 0.79,-0.354 0.79,-0.79 v -19.444 c 0,-0.437 -0.354,-0.79 -0.79,-0.79 -0.436,0 -0.79,0.354 -0.79,0.79 v 19.444 c 0,0.436 0.354,0.79 0.79,0.79 z"
     id="path6"
     inkscape:connector-curvature="0" /><path
     d="m 18.963705,41.014374 c 0.437,0 0.79,-0.354 0.79,-0.79 v -19.444 c 0,-0.437 -0.353,-0.79 -0.79,-0.79 -0.436,0 -0.79,0.354 -0.79,0.79 v 19.444 c 0,0.436 0.354,0.79 0.79,0.79 z"
     id="path8"
     inkscape:connector-curvature="0" /><path
     d="m 25.378705,41.014374 c 0.437,0 0.79,-0.354 0.79,-0.79 v -19.444 c 0,-0.437 -0.354,-0.79 -0.79,-0.79 -0.436,0 -0.789,0.354 -0.789,0.79 v 19.444 c 0,0.436 0.354,0.79 0.789,0.79 z"
     id="path10"
     inkscape:connector-curvature="0" /></svg>